# xmcd
# Track frame offsets:
# 150
# 15163
# 29188
# 40511
# 51986
# 63862
# 73462
# 82537
# 97495
# 110768
# 123814
# 137538
#
# Disc length: 2070 seconds
# Revision: 0
# Processed by: cddbd v1.4PL0 Copyright (c) Steve Scherf et al.
# Submitted via: VisiTrax 2.9.5.180 - For more info visit www.synapsa.com
#
DISCID=a008140c
DTITLE=Alex Whitmore - Not at home on the range
DYEAR=1999
DGENRE=
TTITLE0=Not at home on the range
TTITLE1=Borderline nights
TTITLE2=Chiggers
TTITLE3=Texas blue norther
TTITLE4=Repeat offender
TTITLE5=Wishin' your life away
TTITLE6=Pickin' on the front porch
TTITLE7=Heaven knows
TTITLE8=Gimme some sleep
TTITLE9=Don't say yes (don't say no)
TTITLE10=Where's I put that
TTITLE11=A dog's life
EXTD=
EXTT0=
EXTT1=
EXTT2=
EXTT3=
EXTT4=
EXTT5=
EXTT6=
EXTT7=
EXTT8=
EXTT9=
EXTT10=
EXTT11=
PLAYORDER=
